<svg xmlns="http://www.w3.org/2000/svg" width="390.438" height="306.188" viewBox="0 0 390.438 306.188">
  <defs>
    <style>
      .cls-1 {
        fill: #333;
        fill-rule: evenodd;
      }
    </style>
  </defs>
  <path id="logo" class="cls-1" d="M754.521,282.313a76.406,76.406,0,0,0-24.073-4.08q-16.976,0-25.46,5.794T696.5,301.408q0,6.855,4.815,10.283a28.111,28.111,0,0,0,12.159,4.569q7.344,1.145,20.89,1.959a12.36,12.36,0,0,0,2.04.163,15.883,15.883,0,0,1,2.2.163h0.979a3.13,3.13,0,0,1,.979.163q17.787,1.144,30.275,4.733a40.849,40.849,0,0,1,20.972,14.2q8.484,10.611,8.487,30.683,0,18.281-7.834,30.275t-23.584,18.035q-15.752,6.036-39.577,6.038a128.774,128.774,0,0,1-28.153-2.938,105.061,105.061,0,0,1-15.815-4.844v29.325q0,21.379-10.364,33.131t-29.3,11.751H623.809V457.434h18.605a8.4,8.4,0,0,0,7.1-3.346q2.527-3.346,2.529-9.547V398.415a56.571,56.571,0,0,1-18.017,15.606q-15.669,8.654-37.7,8.65-19.5,0-34.013-6.788v4.34H409.877V182.92h33.294V388.561H534.6q-8.125-16.493-8.131-39.659V321.32q0-23.013,8.242-39.415a56.763,56.763,0,0,1,23.91-24.97q15.667-8.57,37.7-8.569t37.7,8.569a56.047,56.047,0,0,1,18.017,15.533V250.814h33.295v8.071a52.549,52.549,0,0,1,8.715-4.562q14.524-5.955,36.395-5.957a125.886,125.886,0,0,1,25.216,2.448,112.723,112.723,0,0,1,22.93,7.263,114.256,114.256,0,0,1,21.054,12.159l-20.075,24.318A111.8,111.8,0,0,0,754.521,282.313ZM632.883,321.32q0-19.746-9.547-30.52t-27.011-10.772q-17.466,0-27.011,10.772t-9.547,30.52v28.071q0,19.749,9.547,30.683t27.011,10.935q17.461,0,27.011-10.935t9.547-30.683V321.32Zm58.559,21.461a38.556,38.556,0,0,1-6.1-2.471v38.571a101.285,101.285,0,0,0,17.2,8.7,74,74,0,0,0,26.766,5.222q19.745,0,29.622-6.12t9.874-18.361q0-8.158-5.386-12.24a30.427,30.427,0,0,0-13.383-5.468q-8-1.385-22.523-2.529c-0.872,0-1.795-.026-2.774-0.082s-1.9-.135-2.775-0.245a10.172,10.172,0,0,1-1.305-.081,10.626,10.626,0,0,0-1.306-.082A131.612,131.612,0,0,1,691.442,342.781ZM651.717,182.92h33.947v33.3H651.717v-33.3Z" transform="translate(-409.875 -182.906)"/>
</svg>
